<?xml version="1.0" encoding="UTF-8" standalone="no"?>
<!-- Created with Inkscape (http://www.inkscape.org/) -->

<svg
   width="210mm"
   height="297mm"
   viewBox="0 0 210 297"
   version="1.1"
   id="svg5"
   inkscape:version="1.1.1 (3bf5ae0d25, 2021-09-20)"
   sodipodi:docname="drawing.svg"
   xmlns:inkscape="http://www.inkscape.org/namespaces/inkscape"
   xmlns:sodipodi="http://sodipodi.sourceforge.net/DTD/sodipodi-0.dtd"
   xmlns="http://www.w3.org/2000/svg"
   xmlns:svg="http://www.w3.org/2000/svg">
  <sodipodi:namedview
     id="namedview7"
     pagecolor="#ffffff"
     bordercolor="#666666"
     borderopacity="1.0"
     inkscape:pageshadow="2"
     inkscape:pageopacity="0.0"
     inkscape:pagecheckerboard="0"
     inkscape:document-units="mm"
     showgrid="false"
     inkscape:zoom="0.73406285"
     inkscape:cx="397.10496"
     inkscape:cy="60.621512"
     inkscape:window-width="1920"
     inkscape:window-height="1009"
     inkscape:window-x="-8"
     inkscape:window-y="-8"
     inkscape:window-maximized="1"
     inkscape:current-layer="layer1" />
  <defs
     id="defs2" />
  <g
     inkscape:label="Layer 1"
     inkscape:groupmode="layer"
     id="layer1">
    <g
       id="g46"
       transform="matrix(0.94178481,0,0,1.0514621,0.09021497,0.59809875)"
       style="fill:#00ff00">
      <path
         fill="#ffffff"
         d="M 28.18,19.06 A 6.54,6.54 0 0 1 23,16 c 0.67,-5.34 2.62,-7 5.2,-7 2.58,0 4.54,2 4.54,5 0,3 -2,5 -4.54,5 m 0,-13.34 A 7.77,7.77 0 0 0 20.3,11.74 26,26 0 0 1 18.37,6.12 H 12 v 7.9 c 0,2.87 -1.3,5 -3.85,5 -2.55,0 -4,-2.12 -4,-5 V 6.12 H 0.49 v 7.9 A 8.61,8.61 0 0 0 2.6,20 7.27,7.27 0 0 0 8.14,22.35 c 4.41,0 7.5,-3.39 7.5,-8.24 V 8.77 a 25.87,25.87 0 0 0 3.66,8.05 L 17.34,28 h 3.72 l 1.29,-7.92 a 11,11 0 0 0 1.36,1 8.32,8.32 0 0 0 4.14,1.28 h 0.34 A 8.1,8.1 0 0 0 36.37,14 8.12,8.12 0 0 0 28.18,5.69"
         id="path25"
         style="fill:#00ff00" />
      <path
         fill="#ffffff"
         d="M 80.8,7.86 V 6.18 h -3.6 v 15.63 h 3.65 v -6.12 c 0,-3.77 0.34,-6.48 5.4,-6.13 V 6 C 83.89,5.82 82.05,6.31 80.8,7.87"
         id="path27"
         style="fill:#00ff00" />
      <polygon
         fill="#ffffff"
         points="47.73,10.71 50.74,21.82 55.12,21.82 59.4,6.17 55.51,6.17 52.87,17.11 50.05,6.17 45.41,6.17 42.59,17.11 39.95,6.17 36.26,6.17 40.31,21.82 44.69,21.82 "
         id="polygon29"
         style="fill:#00ff00" />
      <path
         fill="#ffffff"
         d="m 67.42,19.07 c -2.59,0 -4.53,-2.05 -4.53,-5 0,-2.95 2,-5 4.53,-5 2.53,0 4.58,1.93 4.58,4.93 0,3 -2,5 -4.54,5 m 0,-13.35 A 8.1,8.1 0 0 0 59.25,14 8.18,8.18 0 1 0 75.6,14 8.11,8.11 0 0 0 67.42,5.69"
         id="path31"
         style="fill:#00ff00" />
      <path
         fill="#ffffff"
         d="m 91.47,14.13 h 0.84 l 5.09,7.69 h 4.11 l -5.85,-8.53 a 7.66,7.66 0 0 0 4.74,-7.11 h -3.63 c 0,3.37 -2.66,4.65 -5.3,4.65 V 0 h -3.65 v 21.82 h 3.64 z"
         id="path33"
         style="fill:#00ff00" />
    </g>
  </g>
</svg>
